<?xml version="1.0" encoding="utf-8"?>
<!-- Generator: Adobe Illustrator 22.1.0, SVG Export Plug-In . SVG Version: 6.00 Build 0)  -->
<svg version="1.1" id="Calque_1" xmlns="http://www.w3.org/2000/svg" xmlns:xlink="http://www.w3.org/1999/xlink" x="0px" y="0px"
	 viewBox="0 0 45 45" style="enable-background:new 0 0 45 45;" xml:space="preserve">
<path id="picto_instagram" d="M39.9,45H5.1C2.3,45,0,42.7,0,39.9V5.1C0,2.3,2.3,0,5.1,0h34.7C42.7,0,45,2.3,45,5.1v34.7
	C45,42.7,42.7,45,39.9,45z M22.3,5c-4.4,0-5.2,0-6.8,0.1l-0.3,0c-1.4,0-2.9,0.3-4.2,0.8C9.8,6.3,8.7,7,7.9,7.9
	c-0.9,0.9-1.6,1.9-2,3.1c-0.5,1.3-0.8,2.8-0.8,4.2l0,0.3C5,17,5,17.9,5,22.3s0,5.2,0.1,6.8l0,0.3c0,1.4,0.3,2.9,0.8,4.2
	c0.4,1.1,1.1,2.2,2,3.1c0.9,0.9,1.9,1.6,3,2c1.3,0.5,2.8,0.8,4.2,0.8l0.3,0c1.6,0.1,2.4,0.1,6.8,0.1s5.2,0,6.8-0.1l0.3,0
	c1.4,0,2.9-0.3,4.2-0.8c1.1-0.4,2.2-1.1,3.1-2c0.9-0.9,1.6-1.9,2-3.1c0.5-1.3,0.8-2.8,0.8-4.2l0-0.3c0.1-1.6,0.1-2.4,0.1-6.8
	s0-5.2-0.1-6.8l0-0.3c0-1.4-0.3-2.9-0.8-4.2c-0.4-1.1-1.1-2.2-2-3.1c-0.9-0.9-1.9-1.6-3-2c-1.3-0.5-2.8-0.8-4.2-0.8l-0.3,0
	C27.4,5,26.6,5,22.3,5z M22.3,36.4c-4.3,0-5,0-6.6-0.1l-0.4,0c-1.1,0-2.2-0.2-3.2-0.6c-0.7-0.3-1.4-0.7-2-1.3c-0.6-0.6-1-1.2-1.3-2
	c-0.4-1-0.6-2.1-0.6-3.2c-0.1-1.9-0.1-2.5-0.1-7s0-5.1,0.1-7c0-1.1,0.2-2.2,0.6-3.2c0.3-0.7,0.7-1.4,1.3-2c0.6-0.6,1.2-1,2-1.3
	c1-0.4,2.1-0.6,3.2-0.6l0.1,0c1.1-0.1,1.7-0.1,3.2-0.1c0.6,0,1.2,0,2.1,0h1.5c4.6,0,5.1,0,7,0.1c1.1,0,2.2,0.2,3.2,0.6
	c0.7,0.3,1.4,0.7,2,1.3c0.6,0.6,1,1.2,1.3,2c0.4,1,0.6,2.1,0.6,3.2l0,0.4c0.1,1.5,0.1,2.3,0.1,6.6s0,5-0.1,6.6l0,0.4
	c0,1.1-0.2,2.2-0.6,3.2c-0.3,0.7-0.7,1.4-1.3,2c-0.6,0.6-1.2,1-2,1.3c-1,0.4-2.1,0.6-3.2,0.6l-0.4,0C27.3,36.4,26.5,36.4,22.3,36.4z
	 M22.3,13.4c-4.9,0-8.9,3.9-8.9,8.8c0,4.9,4,8.8,8.9,8.8c4.9,0,8.8-4,8.8-8.8C31.1,17.4,27.1,13.4,22.3,13.4z M31.5,11
	c-1.2,0-2.1,0.9-2.1,2.1c0,1.2,0.9,2.1,2.1,2.1c1.2,0,2.1-0.9,2.1-2.1C33.5,11.9,32.6,11,31.5,11L31.5,11z M22.3,28
	c-3.2,0-5.7-2.6-5.8-5.8c0-3.2,2.6-5.7,5.8-5.7c3.2,0,5.7,2.6,5.8,5.7C28,25.4,25.4,28,22.3,28z"/>
</svg>
